<svg width="49" height="46" viewBox="0 0 49 46" fill="none" xmlns="http://www.w3.org/2000/svg">
<path d="M20.544 14.4994C17.3658 6.49158 8.29772 2.57645 0.289952 5.75467V5.75467C0.129797 5.81823 0.0514943 5.99959 0.115059 6.15975L9.97762 31.0093C13.1558 39.017 22.2239 42.9322 30.2316 39.754V39.754C30.3918 39.6904 30.4701 39.509 30.4065 39.3489L22.6555 19.8194L20.544 14.4994Z" fill="#262A4C"/>
<path d="M28.3869 14.4994C31.5651 6.49158 40.6332 2.57645 48.641 5.75467V5.75467C48.8011 5.81823 48.8794 5.99959 48.8158 6.15975L38.9533 31.0093C35.7751 39.017 26.707 42.9322 18.6993 39.754V39.754C18.5391 39.6904 18.4608 39.509 18.5244 39.3489L26.2754 19.8194L28.3869 14.4994Z" fill="#51B78E"/>
</svg>
