<svg width="68" height="63" viewBox="0 0 68 63" fill="none" xmlns="http://www.w3.org/2000/svg">
<path d="M28.1593 19.874C23.803 8.89791 11.3736 3.53151 0.397434 7.88784V7.88784C0.177911 7.97496 0.0705827 8.22355 0.157709 8.44308L13.6762 42.504C18.0325 53.4801 30.4619 58.8465 41.4381 54.4902V54.4902C41.6576 54.403 41.7649 54.1545 41.6778 53.9349L31.0535 27.1662L28.1593 19.874Z" fill="#262A4C"/>
<path d="M38.9095 19.874C43.2659 8.89791 55.6953 3.53151 66.6714 7.88784V7.88784C66.8909 7.97496 66.9983 8.22355 66.9111 8.44308L53.3927 42.504C49.0363 53.4801 36.6069 58.8465 25.6308 54.4902V54.4902C25.4113 54.403 25.3039 54.1545 25.3911 53.9349L36.0153 27.1662L38.9095 19.874Z" fill="white"/>
</svg>
