<svg width="20" height="20" viewBox="0 0 20 20" fill="none" xmlns="http://www.w3.org/2000/svg">
<path d="M18.9844 6.4602V3.38105C18.9844 2.3041 18.1082 1.42793 17.0313 1.42793H11.2474V0.390625C11.2474 0.174922 11.0725 0 10.8568 0H9.14324C8.92754 0 8.75262 0.174922 8.75262 0.390625V1.42793H2.96875C1.8918 1.42793 1.01562 2.3041 1.01562 3.38105V6.46023C0.549102 6.73082 0.234375 7.23547 0.234375 7.8125V10.1562C0.234375 10.7333 0.549102 11.2379 1.01562 11.5085V19.6094C1.01562 19.8251 1.19055 20 1.40625 20H18.5938C18.8095 20 18.9844 19.8251 18.9844 19.6094V11.5086C19.451 11.2379 19.7657 10.7333 19.7657 10.1562V7.8125C19.7657 7.23543 19.451 6.73082 18.9844 6.4602ZM8.1059 2.20918H9.14324C9.35895 2.20918 9.53387 2.0343 9.53387 1.81855V0.78125H10.4662V1.81855C10.4662 2.0343 10.6411 2.20918 10.8568 2.20918H11.8941V3.14148H10.8568C10.6411 3.14148 10.4662 3.31641 10.4662 3.53211V4.56945H9.53387V3.53211C9.53387 3.31641 9.35895 3.14148 9.14324 3.14148H8.1059V2.20918V2.20918ZM1.79691 5.35066H3.98258C4.19828 5.35066 4.3732 5.17578 4.3732 4.96004C4.3732 4.7443 4.19828 4.56941 3.98258 4.56941H1.79691V3.38105C1.79691 2.73488 2.32262 2.20918 2.96879 2.20918H7.32465V3.53211C7.32465 3.74781 7.49953 3.92273 7.71527 3.92273H8.75262V4.96008C8.75262 5.17578 8.92754 5.3507 9.14324 5.3507H10.8568C11.0725 5.3507 11.2474 5.17578 11.2474 4.96008V3.92273H12.2848C12.5005 3.92273 12.6754 3.74781 12.6754 3.53211V2.20918H17.0313C17.6775 2.20918 18.2032 2.73488 18.2032 3.38105V4.56941H16.0175C15.8018 4.56941 15.6269 4.74434 15.6269 4.96004C15.6269 5.17574 15.8018 5.35066 16.0175 5.35066H18.2032V6.25H1.79691V5.35066V5.35066ZM16.6407 7.03125V10.1562C16.6407 10.587 16.2902 10.9375 15.8594 10.9375C15.4286 10.9375 15.0782 10.587 15.0782 10.1562V7.03125H16.6407ZM14.2969 7.03125V10.1562C14.2969 10.587 13.9464 10.9375 13.5156 10.9375C13.0848 10.9375 12.7344 10.587 12.7344 10.1562V7.03125H12.7344H14.2969ZM11.9532 7.03125V10.1562C11.9532 10.587 11.6027 10.9375 11.1719 10.9375C10.7411 10.9375 10.3907 10.587 10.3907 10.1562V7.03125H11.9532ZM9.60938 7.03125V10.1562C9.60938 10.587 9.25891 10.9375 8.82812 10.9375C8.39734 10.9375 8.04688 10.587 8.04688 10.1562V7.03125H9.60938ZM7.26562 7.03125V10.1562C7.26562 10.587 6.91516 10.9375 6.48438 10.9375C6.05359 10.9375 5.70312 10.587 5.70312 10.1562V7.03125H7.26562ZM4.92188 7.03125V10.1562C4.92188 10.587 4.57141 10.9375 4.14062 10.9375C3.70984 10.9375 3.35938 10.587 3.35938 10.1562V7.03125H4.92188ZM1.01566 10.1562V7.8125C1.01566 7.38172 1.36613 7.03125 1.79691 7.03125H2.57816V10.1562C2.57816 10.587 2.2277 10.9375 1.79691 10.9375C1.36613 10.9375 1.01566 10.587 1.01566 10.1562ZM7.26562 19.2188H3.35938V14.1406C3.35938 13.9252 3.53461 13.75 3.75 13.75H6.875C7.09039 13.75 7.26562 13.9252 7.26562 14.1406V19.2188ZM18.2032 19.2188H8.04688V14.1406C8.04688 13.4945 7.52117 12.9688 6.875 12.9688H3.75C3.10383 12.9688 2.57812 13.4945 2.57812 14.1406V19.2188H1.79691V11.7188C2.26324 11.7188 2.68227 11.5131 2.96879 11.1881C3.25531 11.5131 3.67434 11.7188 4.14066 11.7188C4.60699 11.7188 5.02602 11.5131 5.31254 11.1881C5.59906 11.5131 6.01809 11.7188 6.48441 11.7188C6.95078 11.7188 7.36977 11.5131 7.65629 11.1881C7.94281 11.5131 8.36184 11.7188 8.82816 11.7188C9.29453 11.7188 9.71352 11.5131 10 11.1881C10.2866 11.5131 10.7056 11.7188 11.1719 11.7188C11.6383 11.7188 12.0572 11.5131 12.3438 11.1881C12.6304 11.5131 13.0493 11.7188 13.5157 11.7188C13.982 11.7188 14.401 11.5131 14.6875 11.1881C14.9741 11.5131 15.3931 11.7188 15.8594 11.7188C16.3258 11.7188 16.7447 11.5131 17.0313 11.1881C17.3179 11.5131 17.7368 11.7188 18.2032 11.7188V19.2188ZM18.9844 10.1562C18.9844 10.587 18.6339 10.9375 18.2032 10.9375C17.7724 10.9375 17.4219 10.587 17.4219 10.1562V7.03125H18.2032C18.6339 7.03125 18.9844 7.38172 18.9844 7.8125V10.1562Z" fill="#262A4C"/>
<path d="M16.2501 12.9688H10.7814C10.1352 12.9688 9.6095 13.4945 9.6095 14.1406V15.7031C9.6095 16.3493 10.1352 16.875 10.7814 16.875H16.2501C16.8963 16.875 17.422 16.3493 17.422 15.7031V14.1406C17.422 13.4945 16.8963 12.9688 16.2501 12.9688ZM16.6407 15.7031C16.6407 15.9185 16.4655 16.0938 16.2501 16.0938H10.7814C10.566 16.0938 10.3907 15.9185 10.3907 15.7031V14.1406C10.3907 13.9252 10.566 13.75 10.7814 13.75H16.2501C16.4655 13.75 16.6407 13.9252 16.6407 14.1406V15.7031Z" fill="#262A4C"/>
<path d="M5.15621 4.56934H5.14355C4.92785 4.56934 4.75293 4.74426 4.75293 4.95996C4.75293 5.17567 4.92785 5.35059 5.14355 5.35059H5.15621C5.37195 5.35059 5.54683 5.17571 5.54683 4.95996C5.54683 4.74422 5.37195 4.56934 5.15621 4.56934Z" fill="#262A4C"/>
<path d="M14.8565 4.56934H14.8439C14.6282 4.56934 14.4532 4.74426 14.4532 4.95996C14.4532 5.17567 14.6282 5.35059 14.8439 5.35059H14.8565C15.0722 5.35059 15.2471 5.17571 15.2471 4.95996C15.2471 4.74422 15.0722 4.56934 14.8565 4.56934Z" fill="#262A4C"/>
</svg>
