<svg width="20" height="20" viewBox="0 0 20 20" fill="none" xmlns="http://www.w3.org/2000/svg">
<path d="M10 9.71973C8.53502 9.71973 7.34314 10.9157 7.34314 12.3858C7.34314 13.8559 8.53502 15.0518 10 15.0518C11.465 15.0518 12.6569 13.8558 12.6569 12.3858C12.6569 10.9157 11.465 9.71973 10 9.71973ZM10 14.2706C8.9658 14.2706 8.12439 13.425 8.12439 12.3858C8.12439 11.3465 8.96576 10.501 10 10.501C11.0343 10.501 11.8756 11.3465 11.8756 12.3858C11.8756 13.4251 11.0342 14.2706 10 14.2706Z" fill="#262A4C"/>
<path d="M10 5.29053C9.15621 5.29053 8.46973 6.01986 8.46973 6.91631C8.46973 7.81275 9.15621 8.54209 10 8.54209C10.8439 8.54209 11.5304 7.81279 11.5304 6.91631C11.5304 6.01982 10.8439 5.29053 10 5.29053ZM10 7.7608C9.58699 7.7608 9.25098 7.38197 9.25098 6.91627C9.25098 6.45061 9.58699 6.07174 10 6.07174C10.4131 6.07174 10.7491 6.45057 10.7491 6.91627C10.7491 7.38197 10.4131 7.7608 10 7.7608Z" fill="#262A4C"/>
<path d="M13.3453 6.83447C12.5014 6.83447 11.8149 7.56377 11.8149 8.46025C11.8149 9.3567 12.5014 10.086 13.3453 10.086C14.1891 10.086 14.8756 9.3567 14.8756 8.46025C14.8756 7.56377 14.189 6.83447 13.3453 6.83447ZM13.3453 9.30475C12.9322 9.30475 12.5962 8.92592 12.5962 8.46025C12.5962 7.99459 12.9322 7.61572 13.3453 7.61572C13.7583 7.61572 14.0943 7.99455 14.0943 8.46025C14.0943 8.92592 13.7583 9.30475 13.3453 9.30475Z" fill="#262A4C"/>
<path d="M6.6547 6.83447C5.81087 6.83447 5.12439 7.56377 5.12439 8.46025C5.12439 9.3567 5.81087 10.086 6.6547 10.086C7.49853 10.086 8.18501 9.35666 8.18501 8.46025C8.18501 7.56381 7.49853 6.83447 6.6547 6.83447ZM6.6547 9.30475C6.24165 9.30475 5.90564 8.92592 5.90564 8.46025C5.90564 7.99459 6.24165 7.61572 6.6547 7.61572C7.06775 7.61572 7.40376 7.99455 7.40376 8.46025C7.40376 8.92592 7.06775 9.30475 6.6547 9.30475Z" fill="#262A4C"/>
<path d="M17.6868 4.80469H15.1953V2.31316C15.1953 1.0377 14.1577 0 12.8821 0H7.11785C5.84234 0 4.80469 1.0377 4.80469 2.31316V4.80469H2.31316C1.0377 4.80469 0 5.84234 0 7.11785V12.8821C0 14.1576 1.0377 15.1953 2.31316 15.1953H4.80469V17.6868C4.80469 18.9623 5.84234 20 7.11785 20H12.8821C14.1577 20 15.1953 18.9623 15.1953 17.6868V15.1953H17.6868C18.9623 15.1953 20 14.1576 20 12.8821V7.11785C20 5.84234 18.9623 4.80469 17.6868 4.80469ZM19.2188 12.8821C19.2188 13.7268 18.5315 14.4141 17.6868 14.4141H14.8047C14.5889 14.4141 14.4141 14.5889 14.4141 14.8047V17.6868C14.4141 18.5315 13.7268 19.2188 12.8821 19.2188H7.11785C6.27316 19.2188 5.58594 18.5315 5.58594 17.6868V14.8047C5.58594 14.5889 5.41105 14.4141 5.19531 14.4141H2.31316C1.46848 14.4141 0.78125 13.7268 0.78125 12.8821V7.11785C0.78125 6.27316 1.46848 5.58594 2.31316 5.58594H5.19531C5.41105 5.58594 5.58594 5.41105 5.58594 5.19531V2.31316C5.58594 1.46848 6.27316 0.78125 7.11785 0.78125H12.8821C13.7268 0.78125 14.4141 1.46848 14.4141 2.31316V5.19531C14.4141 5.41105 14.5889 5.58594 14.8047 5.58594H17.6868C18.5315 5.58594 19.2188 6.27316 19.2188 7.11785V12.8821Z" fill="#262A4C"/>
<path d="M11.875 17.2964H9.29871C9.08296 17.2964 8.90808 17.4713 8.90808 17.687C8.90808 17.9028 9.08296 18.0776 9.29871 18.0776H11.875C12.0907 18.0776 12.2656 17.9028 12.2656 17.687C12.2656 17.4713 12.0907 17.2964 11.875 17.2964Z" fill="#262A4C"/>
<path d="M8.13766 17.2964H8.125C7.90926 17.2964 7.73438 17.4713 7.73438 17.687C7.73438 17.9028 7.90926 18.0776 8.125 18.0776H8.13766C8.3534 18.0776 8.52828 17.9028 8.52828 17.687C8.52828 17.4713 8.3534 17.2964 8.13766 17.2964Z" fill="#262A4C"/>
<path d="M11.875 1.92236H11.8623C11.6466 1.92236 11.4717 2.09725 11.4717 2.31299C11.4717 2.52873 11.6466 2.70361 11.8623 2.70361H11.875C12.0907 2.70361 12.2656 2.52873 12.2656 2.31299C12.2656 2.09725 12.0907 1.92236 11.875 1.92236Z" fill="#262A4C"/>
<path d="M10.7013 1.92236H8.125C7.90926 1.92236 7.73438 2.09725 7.73438 2.31299C7.73438 2.52873 7.90926 2.70361 8.125 2.70361H10.7013C10.917 2.70361 11.0919 2.52873 11.0919 2.31299C11.0919 2.09725 10.917 1.92236 10.7013 1.92236Z" fill="#262A4C"/>
</svg>
