<svg width="20" height="20" viewBox="0 0 20 20" fill="none" xmlns="http://www.w3.org/2000/svg">
<g clip-path="url(#clip0)">
<path d="M18.3464 19.515L16.5883 12.4565C16.2483 11.0912 15.2448 10.3393 13.7627 10.3393H12.2495L11.8276 9.28454C11.9283 9.17934 12.0269 9.06595 12.1229 8.94399C12.6069 8.32907 13.0228 7.49387 13.237 6.70755C13.2802 6.57946 13.312 6.43915 13.336 6.2913C14.8472 5.49391 15.163 4.24196 14.9413 3.31044C14.637 2.03184 13.4013 1.15188 11.9023 1.12418C10.7165 -0.120192 9.50167 0.23391 8.51916 0.520395C7.50979 0.814653 6.9083 0.942504 6.28232 0.148754C6.21811 0.0673477 6.12416 0.0147695 6.02119 0.00269919C5.91787 -0.00948832 5.81459 0.0199258 5.7333 0.0842617C4.82783 0.800356 4.37056 1.82317 4.44576 2.96419C4.52865 4.22192 5.249 5.42493 6.34139 6.15262C6.40596 6.91489 6.7915 7.83809 7.38006 8.61934C7.57397 8.87673 7.78092 9.10724 7.99616 9.30833L7.64131 10.3392C7.64119 10.3392 7.64127 10.3392 7.64119 10.3392C7.64112 10.3392 6.11662 10.3392 6.1165 10.3392C5.75662 10.337 5.14705 10.4749 4.5906 10.789C3.85794 11.2024 3.38126 11.819 3.21204 12.5722L1.65146 19.5195C1.62548 19.6353 1.65349 19.7566 1.72755 19.8492C1.80165 19.9418 1.91388 19.9958 2.03247 19.9958L17.9672 20C17.9673 20 17.9673 20 17.9673 20C18.0875 20 18.2011 19.9447 18.2751 19.85C18.3491 19.7552 18.3754 19.6317 18.3464 19.515ZM6.33209 4.13329L6.33193 5.15497C5.68986 4.56286 5.28068 3.75161 5.22541 2.91282C5.17568 2.15786 5.42998 1.46965 5.94697 0.940629C6.32162 1.29961 6.74455 1.49165 7.23057 1.52508C7.7433 1.5604 8.24893 1.41293 8.73788 1.2704C9.70483 0.988481 10.54 0.744926 11.4362 1.77227C11.5128 1.86008 11.6251 1.90985 11.7413 1.90594C13.1499 1.86793 13.9932 2.70071 14.1814 3.49133C14.3455 4.18063 14.0572 4.83766 13.4005 5.33032C13.4011 5.09454 13.3949 4.8577 13.3889 4.63051C13.3842 4.45059 13.3797 4.28067 13.3797 4.13337C13.3797 3.94462 13.2448 3.78286 13.0591 3.74907C12.1377 3.58129 11.6992 3.40286 11.0736 2.73477C10.9535 2.60649 10.7625 2.57422 10.6069 2.65594C9.17096 3.41004 8.15112 3.6945 6.70959 3.74297C6.49904 3.75001 6.33213 3.92266 6.33209 4.13329ZM7.11295 5.93173L7.11315 4.50547C8.40881 4.42251 9.41417 4.13477 10.7117 3.48059C11.315 4.06208 11.8507 4.29325 12.6029 4.45528C12.6044 4.51899 12.6061 4.58438 12.6079 4.65106C12.6241 5.26548 12.6443 6.03001 12.494 6.46606C12.4911 6.47446 12.4885 6.48298 12.4862 6.49157C12.2868 7.23048 11.8051 8.24923 11.1309 8.87813C11.1132 8.89169 11.097 8.90661 11.0821 8.92266C10.7283 9.23833 10.3237 9.44536 9.88022 9.45056C9.50506 9.41329 9.10499 9.2227 8.71897 8.90614C8.70596 8.8938 8.69217 8.8822 8.67741 8.87161C8.44448 8.67462 8.21717 8.43196 8.0042 8.14923C7.46276 7.43067 7.11295 6.56024 7.11295 5.93173ZM11.4928 10.551L9.99542 11.3717L8.39885 10.5391L8.6492 9.81173C9.03862 10.0517 9.43956 10.1965 9.82924 10.2304C9.84053 10.2314 9.85186 10.2319 9.86319 10.2319C10.3239 10.2319 10.7739 10.0895 11.1978 9.81364L11.4928 10.551ZM6.53939 13.192C6.80865 13.192 7.02768 13.411 7.02768 13.6803C7.02768 13.9495 6.80865 14.1686 6.53939 14.1686C6.27014 14.1686 6.05111 13.9495 6.05111 13.6803C6.05115 13.411 6.27018 13.192 6.53939 13.192ZM6.93002 19.2159V17.5239C6.93002 17.3082 6.7551 17.1333 6.53939 17.1333C6.32365 17.1333 6.14877 17.3082 6.14877 17.5239V19.2157L2.52064 19.2147L3.97439 12.7434C4.25021 11.5158 5.64697 11.1204 6.10869 11.1204C6.11045 11.1204 6.11225 11.1204 6.114 11.1204H6.14881V12.4725C5.63939 12.6376 5.26994 13.1165 5.26994 13.6802C5.26994 14.3802 5.83943 14.9497 6.53943 14.9497C7.23944 14.9497 7.80893 14.3802 7.80893 13.6802C7.80893 13.1165 7.43944 12.6377 6.93006 12.4725V11.1204H7.82436L9.8194 12.1609C9.876 12.1904 9.93803 12.2051 10 12.2051C10.0647 12.2051 10.1293 12.1891 10.1878 12.157L12.0792 11.1204H13.7628C14.8828 11.1204 15.5784 11.6334 15.8304 12.6452L17.4676 19.2186L6.93002 19.2159Z" fill="#262A4C"/>
<path d="M14.4717 13.3104H13.8167V12.6553C13.8167 12.4395 13.6417 12.2646 13.426 12.2646H12.1711C11.9554 12.2646 11.7805 12.4395 11.7805 12.6553V13.3104H11.1254C10.9097 13.3104 10.7347 13.4853 10.7347 13.701V14.9559C10.7347 15.1716 10.9097 15.3465 11.1254 15.3465H11.7805V16.0016C11.7805 16.2174 11.9554 16.3923 12.1711 16.3923H13.426C13.6417 16.3923 13.8167 16.2174 13.8167 16.0016V15.3465H14.4717C14.6875 15.3465 14.8624 15.1716 14.8624 14.9559V13.701C14.8624 13.4853 14.6874 13.3104 14.4717 13.3104ZM14.0811 14.5653H13.426C13.2103 14.5653 13.0354 14.7402 13.0354 14.9559V15.611H12.5617V14.9559C12.5617 14.7402 12.3867 14.5653 12.171 14.5653H11.5159V14.0916H12.171C12.3867 14.0916 12.5617 13.9168 12.5617 13.701V13.0459H13.0354V13.701C13.0354 13.9168 13.2103 14.0916 13.426 14.0916H14.0811V14.5653Z" fill="#262A4C"/>
<path d="M6.53943 15.9595C6.32369 15.9595 6.1488 16.1344 6.1488 16.3501V16.3628C6.1488 16.5785 6.32369 16.7534 6.53943 16.7534C6.75513 16.7534 6.93006 16.5785 6.93006 16.3628V16.3501C6.93006 16.1344 6.75513 15.9595 6.53943 15.9595Z" fill="#262A4C"/>
<path d="M11.1044 5.3457C10.8893 5.3457 10.7137 5.52117 10.7137 5.73633C10.7137 5.95149 10.8893 6.12695 11.1044 6.12695C11.3196 6.12695 11.495 5.95149 11.495 5.73633C11.495 5.52117 11.3196 5.3457 11.1044 5.3457Z" fill="#262A4C"/>
<path d="M8.79981 5.3457C8.58469 5.3457 8.40918 5.52117 8.40918 5.73633C8.40918 5.95149 8.58469 6.12695 8.79981 6.12695C9.015 6.12695 9.19043 5.95149 9.19043 5.73633C9.19043 5.52117 9.01496 5.3457 8.79981 5.3457Z" fill="#262A4C"/>
</g>
<defs>
<clipPath id="clip0">
<rect width="20" height="20" fill="white"/>
</clipPath>
</defs>
</svg>
