<svg width="20" height="20" viewBox="0 0 20 20" fill="none" xmlns="http://www.w3.org/2000/svg">
<g clip-path="url(#clip0)">
<path d="M19.8701 8.65285L12.0637 0.851924C11.5143 0.302828 10.7812 0.000488281 9.99953 0.000488281C9.21778 0.000488281 8.48474 0.302868 7.9353 0.851885L0.114529 8.66718C0.00277213 8.7789 -0.0307431 8.94691 0.0297249 9.09292C0.0901539 9.2389 0.232613 9.33413 0.390619 9.33413H1.37705L3.11727 19.6737C3.11762 19.6759 3.1182 19.6779 3.11863 19.6801C3.11981 19.6864 3.12117 19.6926 3.1227 19.6989C3.1241 19.7047 3.12555 19.7106 3.12719 19.7163C3.12887 19.7222 3.1307 19.7281 3.1327 19.7339C3.13477 19.74 3.13695 19.746 3.1393 19.752C3.14137 19.7571 3.14336 19.7622 3.14563 19.7673C3.14852 19.7739 3.15172 19.7803 3.15496 19.7867C3.15711 19.7908 3.15918 19.795 3.16149 19.7991C3.16547 19.8062 3.16973 19.8131 3.17414 19.8199C3.17621 19.8231 3.17816 19.8264 3.18031 19.8296C3.18559 19.8372 3.19121 19.8447 3.19703 19.8519C3.19871 19.854 3.20024 19.8562 3.20195 19.8583C3.21738 19.8768 3.23441 19.8939 3.25289 19.9092C3.25594 19.9117 3.25918 19.914 3.2623 19.9165C3.26844 19.9213 3.27457 19.926 3.28102 19.9304C3.28539 19.9335 3.28996 19.9362 3.29449 19.939C3.3 19.9425 3.30547 19.946 3.31113 19.9492C3.31609 19.952 3.32121 19.9545 3.32629 19.9571C3.33191 19.9599 3.3375 19.9627 3.34328 19.9653C3.34844 19.9676 3.35367 19.9698 3.35894 19.9719C3.36508 19.9743 3.37125 19.9765 3.37754 19.9787C3.38258 19.9804 3.38758 19.982 3.39269 19.9835C3.39992 19.9856 3.40722 19.9874 3.41457 19.9892C3.41894 19.9901 3.42328 19.9913 3.42769 19.9921C3.43699 19.9939 3.44644 19.9953 3.45597 19.9964C3.45867 19.9967 3.46133 19.9972 3.46406 19.9975C3.4766 19.9988 3.48929 19.9995 3.50215 19.9995C3.50261 19.9995 3.50304 19.9995 3.50351 19.9995H16.4959C16.4963 19.9995 16.4968 19.9995 16.4972 19.9995C16.51 19.9995 16.5227 19.9987 16.5353 19.9975C16.538 19.9972 16.5407 19.9967 16.5434 19.9964C16.5529 19.9953 16.5623 19.9939 16.5717 19.9921C16.5761 19.9913 16.5804 19.9901 16.5848 19.9892C16.5921 19.9874 16.5995 19.9856 16.6067 19.9835C16.6118 19.982 16.6168 19.9804 16.6219 19.9787C16.6281 19.9765 16.6343 19.9743 16.6404 19.9719C16.6457 19.9698 16.651 19.9676 16.6562 19.9653C16.6619 19.9628 16.6674 19.96 16.673 19.9572C16.6781 19.9546 16.6833 19.952 16.6883 19.9492C16.6939 19.946 16.6993 19.9426 16.7047 19.9392C16.7093 19.9363 16.7139 19.9335 16.7184 19.9305C16.7247 19.9261 16.7307 19.9214 16.7368 19.9167C16.74 19.9142 16.7434 19.9119 16.7466 19.9092C16.765 19.8939 16.782 19.8769 16.7974 19.8584C16.7992 19.8562 16.8008 19.854 16.8025 19.8518C16.8082 19.8446 16.8138 19.8372 16.819 19.8297C16.8212 19.8265 16.8232 19.8231 16.8254 19.8199C16.8297 19.8131 16.8339 19.8063 16.8378 19.7992C16.8402 19.7951 16.8423 19.7908 16.8445 19.7866C16.8477 19.7803 16.8508 19.7739 16.8537 19.7674C16.856 19.7623 16.858 19.7572 16.8601 19.752C16.8624 19.7461 16.8646 19.7401 16.8667 19.734C16.8687 19.7282 16.8705 19.7223 16.8722 19.7164C16.8739 19.7106 16.8753 19.7048 16.8767 19.6989C16.8781 19.6927 16.8796 19.6865 16.8807 19.6801C16.8811 19.678 16.8817 19.676 16.8821 19.6738L18.6223 9.33417H19.6087C19.6091 9.33413 19.6092 9.33413 19.6095 9.33417C19.8252 9.33417 20.0001 9.15929 20.0001 8.94355C19.9998 8.82808 19.9497 8.72433 19.8701 8.65285ZM5.7029 19.2182H3.83281L3.30687 16.0934H5.7029V19.2182V19.2182ZM13.5149 19.2182H6.4841V15.7028C6.4841 13.7644 8.06112 12.1874 9.99953 12.1874C11.9379 12.1874 13.5149 13.7644 13.5149 15.7028V19.2182ZM16.1663 19.2182H14.2961V16.0934H16.6921L16.1663 19.2182ZM17.7282 9.93721H15.4825C15.2667 9.93721 15.0919 10.1121 15.0919 10.3278C15.0919 10.5436 15.2667 10.7184 15.4825 10.7184H17.5968L16.8236 15.3123H14.2782C14.0802 13.1255 12.237 11.4062 9.99957 11.4062C7.76206 11.4062 5.91887 13.1255 5.72087 15.3123H3.17535L2.4022 10.7184H4.51651C4.73221 10.7184 4.90713 10.5435 4.90713 10.3278C4.90713 10.112 4.73221 9.93717 4.51651 9.93717H2.27075L2.16919 9.33405H3.02418C3.12777 9.33405 3.22711 9.29288 3.30039 9.21964L9.99949 2.52062L16.6986 9.21968C16.7719 9.29292 16.8712 9.33409 16.9748 9.33409H17.8298L17.7282 9.93721ZM17.1366 8.55289L10.2757 1.69203C10.1232 1.53949 9.8759 1.53949 9.72332 1.69203L2.86247 8.55289H1.33408L8.48748 1.40453C8.88939 1.0029 9.42633 0.781768 9.99949 0.781768C10.5726 0.781768 11.1096 1.00294 11.5115 1.40453L18.6649 8.55293H17.1366V8.55289Z" fill="#262A4C"/>
<path d="M11.9526 6.13422C11.6415 6.13422 11.3584 6.26657 11.1484 6.48168C11.1634 6.4009 11.1713 6.31739 11.1713 6.23188C11.1713 5.53193 10.6457 4.9624 9.99952 4.9624C9.35343 4.9624 8.82774 5.53189 8.82774 6.23188C8.82774 6.31739 8.8357 6.40094 8.85067 6.48172C8.64059 6.26661 8.35762 6.13422 8.04646 6.13422C7.40033 6.13422 6.87463 6.70371 6.87463 7.4037C6.87463 8.10369 7.40029 8.67322 8.04646 8.67322C8.12438 8.67322 8.20052 8.66474 8.27427 8.64892C8.25321 8.76357 8.24181 8.88181 8.24181 9.00286C8.24181 10.0259 9.03027 10.8582 9.99952 10.8582C10.9688 10.8582 11.7572 10.0259 11.7572 9.00286C11.7572 8.88181 11.7458 8.76357 11.7248 8.64892C11.7985 8.66474 11.8747 8.67322 11.9526 8.67322C12.5987 8.67322 13.1244 8.10373 13.1244 7.4037C13.1244 6.70371 12.5987 6.13422 11.9526 6.13422ZM8.04646 7.89198C7.8347 7.89198 7.65584 7.66835 7.65584 7.4037C7.65584 7.13906 7.8347 6.91547 8.04646 6.91547C8.25817 6.91547 8.43704 7.13906 8.43704 7.4037C8.43704 7.66835 8.25817 7.89198 8.04646 7.89198ZM10.8037 7.1539C10.7924 7.21523 10.7851 7.27816 10.7822 7.3423C10.7412 7.32066 10.6993 7.30073 10.6565 7.28245C10.7088 7.24398 10.7579 7.20081 10.8037 7.1539ZM9.99952 5.74356C10.2113 5.74356 10.3901 5.96716 10.3901 6.2318C10.3901 6.49645 10.2113 6.72004 9.99952 6.72004C9.7878 6.72004 9.60894 6.49645 9.60894 6.2318C9.60894 5.9672 9.7878 5.74356 9.99952 5.74356ZM9.34257 7.28241C9.29976 7.3007 9.25785 7.32062 9.21679 7.34226C9.21398 7.27808 9.20668 7.21515 9.19531 7.15382C9.24113 7.20078 9.29023 7.2439 9.34257 7.28241ZM9.99952 10.077C9.46109 10.077 9.02301 9.59512 9.02301 9.00279C9.02301 8.41053 9.46109 7.92862 9.99952 7.92862C10.538 7.92862 10.976 8.41049 10.976 9.00279C10.976 9.59512 10.538 10.077 9.99952 10.077ZM11.9526 7.89198C11.7409 7.89198 11.562 7.66835 11.562 7.4037C11.562 7.13906 11.7409 6.91547 11.9526 6.91547C12.1644 6.91547 12.3432 7.13906 12.3432 7.4037C12.3432 7.66835 12.1644 7.89198 11.9526 7.89198Z" fill="#262A4C"/>
<path d="M5.69014 9.9375H5.67749C5.46175 9.9375 5.28687 10.1124 5.28687 10.3281C5.28687 10.5439 5.46175 10.7187 5.67749 10.7187H5.69014C5.90584 10.7187 6.08076 10.5439 6.08076 10.3281C6.08076 10.1124 5.90584 9.9375 5.69014 9.9375Z" fill="#262A4C"/>
<path d="M14.3215 9.9375H14.3088C14.0931 9.9375 13.9182 10.1124 13.9182 10.3281C13.9182 10.5439 14.0931 10.7187 14.3088 10.7187H14.3215C14.5373 10.7187 14.7122 10.5439 14.7122 10.3281C14.7122 10.1124 14.5372 9.9375 14.3215 9.9375Z" fill="#262A4C"/>
</g>
<defs>
<clipPath id="clip0">
<rect width="20" height="20" fill="white"/>
</clipPath>
</defs>
</svg>
