<svg width="20" height="20" viewBox="0 0 20 20" fill="none" xmlns="http://www.w3.org/2000/svg">
<path d="M18.6131 3.75H17.8318V3.45699C17.8318 2.86468 17.3498 2.38277 16.7575 2.38277H15.781C15.1887 2.38277 14.7068 2.86465 14.7068 3.45699V3.75H13.9585V2.65375C13.9585 1.96586 13.3988 1.40625 12.7109 1.40625H7.20815C6.5203 1.40625 5.96065 1.9659 5.96065 2.65375V3.75H5.29319V3.45699C5.29319 2.86468 4.81128 2.38277 4.21898 2.38277H3.24242C2.65011 2.38277 2.1682 2.86465 2.1682 3.45699V3.75H1.38695C0.622186 3.75 0 4.37218 0 5.13695V17.2067C0 17.9715 0.622186 18.5937 1.38695 18.5937H18.6131C19.3778 18.5937 20 17.9715 20 17.2067V5.13695C20 4.37218 19.3778 3.75 18.6131 3.75ZM15.488 3.45699C15.488 3.29547 15.6194 3.16406 15.781 3.16406H16.7575C16.9191 3.16406 17.0505 3.29547 17.0505 3.45699V3.75H15.488V3.45699ZM6.7419 2.65375C6.7419 2.39664 6.95104 2.1875 7.20815 2.1875H12.7109C12.968 2.1875 13.1772 2.39664 13.1772 2.65375V3.75H6.7419V2.65375ZM2.94945 3.45699C2.94945 3.29547 3.08085 3.16406 3.24242 3.16406H4.21898C4.38054 3.16406 4.51194 3.29547 4.51194 3.45699V3.75H2.94945V3.45699ZM19.2188 17.2067C19.2188 17.5407 18.947 17.8125 18.6131 17.8125H1.38695C1.05297 17.8124 0.781249 17.5407 0.781249 17.2067V5.13695C0.781249 4.80296 1.05297 4.53124 1.38695 4.53124H18.6131C18.947 4.53124 19.2188 4.80296 19.2188 5.13695V17.2067Z" fill="#262A4C"/>
<path d="M13.9441 9.30251H11.8697V7.22803C11.8697 7.01228 11.6948 6.8374 11.4791 6.8374H8.5209C8.30516 6.8374 8.13027 7.01228 8.13027 7.22803V9.30251H6.05579C5.84008 9.30251 5.66516 9.47739 5.66516 9.69313V12.6513C5.66516 12.867 5.84008 13.0419 6.05579 13.0419H8.13027V15.1164C8.13027 15.3321 8.30516 15.507 8.5209 15.507H11.4791C11.6948 15.507 11.8697 15.3321 11.8697 15.1164V13.0419H13.9441C14.1598 13.0419 14.3348 12.867 14.3348 12.6513V9.69313C14.3348 9.47739 14.1598 9.30251 13.9441 9.30251ZM13.5535 12.2607H11.4791C11.2634 12.2607 11.0884 12.4355 11.0884 12.6513V14.7258H8.91152V12.6513C8.91152 12.4355 8.7366 12.2607 8.5209 12.2607H6.44641V10.0838H8.5209C8.7366 10.0838 8.91152 9.90888 8.91152 9.69313V7.61865H11.0884V9.69313C11.0884 9.90888 11.2634 10.0838 11.4791 10.0838H13.5535V12.2607Z" fill="#262A4C"/>
<path d="M5.50781 5.11719H5.49512C5.27941 5.11719 5.10449 5.29207 5.10449 5.50781C5.10449 5.72355 5.27941 5.89844 5.49512 5.89844H5.50781C5.72355 5.89844 5.89844 5.72351 5.89844 5.50781C5.89844 5.29207 5.72355 5.11719 5.50781 5.11719Z" fill="#262A4C"/>
<path d="M4.33406 5.11719H1.75781C1.54211 5.11719 1.36719 5.29207 1.36719 5.50781C1.36719 5.72355 1.54211 5.89844 1.75781 5.89844H4.33406C4.54976 5.89844 4.72468 5.72355 4.72468 5.50781C4.72468 5.29207 4.5498 5.11719 4.33406 5.11719Z" fill="#262A4C"/>
<path d="M18.2421 16.4453H15.6659C15.4502 16.4453 15.2753 16.6202 15.2753 16.8359C15.2753 17.0517 15.4502 17.2266 15.6659 17.2266H18.2421C18.4578 17.2266 18.6328 17.0517 18.6328 16.8359C18.6328 16.6202 18.4578 16.4453 18.2421 16.4453Z" fill="#262A4C"/>
<path d="M14.5048 16.4453H14.4922C14.2764 16.4453 14.1016 16.6202 14.1016 16.8359C14.1016 17.0517 14.2764 17.2266 14.4922 17.2266H14.5048C14.7205 17.2266 14.8955 17.0517 14.8955 16.8359C14.8955 16.6202 14.7206 16.4453 14.5048 16.4453Z" fill="#262A4C"/>
</svg>
