<svg width="12" height="12" viewBox="0 0 12 12" fill="none" xmlns="http://www.w3.org/2000/svg">
<path d="M10.6667 4.40667V10H1.33338V2.66667H2.33338V2H1.25004C1.17212 2.0013 1.09522 2.01794 1.02373 2.04897C0.952245 2.08 0.887569 2.1248 0.833399 2.18083C0.779229 2.23686 0.736627 2.30301 0.708027 2.3755C0.679426 2.44799 0.665387 2.52541 0.666712 2.60333V10.0633C0.665387 10.1413 0.679426 10.2187 0.708027 10.2912C0.736627 10.3637 0.779229 10.4298 0.833399 10.4858C0.887569 10.5419 0.952245 10.5867 1.02373 10.6177C1.09522 10.6487 1.17212 10.6654 1.25004 10.6667H10.75C10.828 10.6654 10.9049 10.6487 10.9764 10.6177C11.0478 10.5867 11.1125 10.5419 11.1667 10.4858C11.2209 10.4298 11.2635 10.3637 11.2921 10.2912C11.3207 10.2187 11.3347 10.1413 11.3334 10.0633V4.11333C11.1268 4.24335 10.9021 4.34219 10.6667 4.40667Z" fill="#262A4C"/>
<path d="M2.66663 4.6665H3.33329V5.33317H2.66663V4.6665Z" fill="#262A4C"/>
<path d="M4.66663 4.6665H5.33329V5.33317H4.66663V4.6665Z" fill="#262A4C"/>
<path d="M6.66663 4.6665H7.33329V5.33317H6.66663V4.6665Z" fill="#262A4C"/>
<path d="M8.66663 4.6665H9.33329V5.33317H8.66663V4.6665Z" fill="#262A4C"/>
<path d="M2.66663 6.3335H3.33329V7.00016H2.66663V6.3335Z" fill="#262A4C"/>
<path d="M4.66663 6.3335H5.33329V7.00016H4.66663V6.3335Z" fill="#262A4C"/>
<path d="M6.66663 6.3335H7.33329V7.00016H6.66663V6.3335Z" fill="#262A4C"/>
<path d="M8.66663 6.3335H9.33329V7.00016H8.66663V6.3335Z" fill="#262A4C"/>
<path d="M2.66663 8H3.33329V8.66667H2.66663V8Z" fill="#262A4C"/>
<path d="M4.66663 8H5.33329V8.66667H4.66663V8Z" fill="#262A4C"/>
<path d="M6.66663 8H7.33329V8.66667H6.66663V8Z" fill="#262A4C"/>
<path d="M8.66663 8H9.33329V8.66667H8.66663V8Z" fill="#262A4C"/>
<path d="M3.33333 3.33317C3.42174 3.33317 3.50652 3.29805 3.56904 3.23554C3.63155 3.17303 3.66667 3.08824 3.66667 2.99984V0.999837C3.66667 0.911432 3.63155 0.826647 3.56904 0.764135C3.50652 0.701623 3.42174 0.666504 3.33333 0.666504C3.24493 0.666504 3.16014 0.701623 3.09763 0.764135C3.03512 0.826647 3 0.911432 3 0.999837V2.99984C3 3.08824 3.03512 3.17303 3.09763 3.23554C3.16014 3.29805 3.24493 3.33317 3.33333 3.33317Z" fill="#262A4C"/>
<path d="M7.50004 2H4.33337V2.66667H7.59337C7.53231 2.44968 7.50091 2.22542 7.50004 2Z" fill="#262A4C"/>
<path d="M10 3.66683C10.9205 3.66683 11.6667 2.92064 11.6667 2.00016C11.6667 1.07969 10.9205 0.333496 10 0.333496C9.07957 0.333496 8.33337 1.07969 8.33337 2.00016C8.33337 2.92064 9.07957 3.66683 10 3.66683Z" fill="#262A4C"/>
</svg>
