<svg width="12" height="12" viewBox="0 0 12 12" fill="none" xmlns="http://www.w3.org/2000/svg">
<g clip-path="url(#clip0)">
<path d="M11.0077 11.709L9.95292 7.47387C9.7489 6.65471 9.14679 6.20356 8.25752 6.20356H7.34962L7.09647 5.57072C7.15689 5.50761 7.21605 5.43957 7.27366 5.3664C7.5641 4.99744 7.81363 4.49633 7.94214 4.02453C7.96802 3.94768 7.98714 3.86349 8.00156 3.77478C8.90826 3.29635 9.09773 2.54518 8.96472 1.98626C8.78214 1.2191 8.0407 0.691128 7.14128 0.67451C6.42981 -0.0721149 5.70093 0.140346 5.11143 0.312237C4.5058 0.488792 4.14491 0.565503 3.76932 0.0892524C3.73079 0.0404086 3.67442 0.0088617 3.61264 0.00161951C3.55065 -0.00569299 3.48868 0.0119555 3.43991 0.050557C2.89662 0.480214 2.62226 1.0939 2.66738 1.77851C2.71712 2.53315 3.14933 3.25496 3.80476 3.69157C3.8435 4.14893 4.07483 4.70286 4.42796 5.17161C4.54431 5.32604 4.66848 5.46434 4.79762 5.585L4.58471 6.20354C4.58464 6.20354 4.58469 6.20354 4.58464 6.20354C4.5846 6.20354 3.6699 6.20354 3.66983 6.20354C3.4539 6.2022 3.08816 6.28496 2.75429 6.47337C2.31469 6.72144 2.02869 7.0914 1.92715 7.5433L0.9908 11.7117C0.975214 11.7812 0.992019 11.8539 1.03646 11.9095C1.08092 11.9651 1.14825 11.9975 1.21941 11.9975L10.7803 12C10.7803 12 10.7803 12 10.7803 12C10.8525 12 10.9206 11.9668 10.965 11.91C11.0094 11.8531 11.0252 11.779 11.0077 11.709ZM3.79918 2.47997L3.79909 3.09298C3.41384 2.73771 3.16834 2.25096 3.13517 1.74769C3.10534 1.29471 3.25791 0.881792 3.56811 0.564378C3.7929 0.779768 4.04666 0.894987 4.33827 0.91505C4.64591 0.936237 4.94928 0.84776 5.24265 0.762237C5.82283 0.593089 6.32394 0.446956 6.86167 1.06336C6.90763 1.11605 6.97502 1.14591 7.0447 1.14357C7.88985 1.12076 8.39585 1.62042 8.50877 2.0948C8.60721 2.50838 8.43426 2.9026 8.04021 3.19819C8.04058 3.05672 8.03688 2.91462 8.03329 2.77831C8.03043 2.67036 8.02776 2.5684 8.02776 2.48002C8.02776 2.36677 7.94678 2.26971 7.83536 2.24944C7.28256 2.14878 7.01945 2.04171 6.64408 1.64086C6.57201 1.56389 6.45742 1.54453 6.36405 1.59357C5.5025 2.04603 4.8906 2.2167 4.02568 2.24578C3.89935 2.25 3.7992 2.3536 3.79918 2.47997ZM4.2677 3.55904L4.26781 2.70328C5.04521 2.6535 5.64843 2.48086 6.42693 2.08835C6.78892 2.43725 7.11037 2.57595 7.56168 2.67317C7.56257 2.71139 7.5636 2.75063 7.56466 2.79064C7.57438 3.15929 7.5865 3.618 7.49634 3.87964C7.4946 3.88468 7.49301 3.88979 7.49165 3.89494C7.372 4.33829 7.08301 4.94954 6.67846 5.32688C6.66787 5.33501 6.65812 5.34397 6.64919 5.3536C6.43691 5.543 6.19412 5.66722 5.92806 5.67033C5.70297 5.64797 5.46292 5.53362 5.23131 5.34368C5.2235 5.33628 5.21523 5.32932 5.20637 5.32297C5.06661 5.20477 4.93023 5.05918 4.80245 4.88954C4.47758 4.4584 4.2677 3.93614 4.2677 3.55904ZM6.89561 6.33062L5.99718 6.82301L5.03924 6.32344L5.18945 5.88704C5.4231 6.03104 5.66366 6.11787 5.89747 6.13826C5.90425 6.13885 5.91104 6.13915 5.91784 6.13915C6.19429 6.13915 6.46426 6.05372 6.71863 5.88818L6.89561 6.33062ZM3.92356 7.9152C4.08512 7.9152 4.21653 8.04662 4.21653 8.20817C4.21653 8.36973 4.08512 8.50114 3.92356 8.50114C3.76201 8.50114 3.63059 8.36973 3.63059 8.20817C3.63062 8.04659 3.76203 7.9152 3.92356 7.9152ZM4.15794 11.5295V10.5144C4.15794 10.3849 4.05299 10.28 3.92356 10.28C3.79412 10.28 3.68919 10.3849 3.68919 10.5144V11.5294L1.51231 11.5288L2.38456 7.64605C2.55005 6.90945 3.38811 6.67226 3.66514 6.67226C3.6662 6.67226 3.66727 6.67226 3.66833 6.67226H3.68921V7.48348C3.38356 7.58258 3.16189 7.8699 3.16189 8.20812C3.16189 8.6281 3.50359 8.96982 3.92359 8.96982C4.34359 8.96982 4.68528 8.6281 4.68528 8.20812C4.68528 7.86987 4.46359 7.5826 4.15796 7.48348V6.67226H4.69454L5.89157 7.29652C5.92553 7.31424 5.96275 7.32308 5.99994 7.32308C6.03873 7.32308 6.07752 7.31344 6.11258 7.29422L7.24748 6.67224H8.25761C8.92959 6.67224 9.34697 6.98004 9.49818 7.58712L10.4805 11.5312L4.15794 11.5295Z" fill="#262A4C"/>
<path d="M8.683 7.98633H8.28995V7.59326C8.28995 7.46382 8.18499 7.35889 8.05557 7.35889H7.30262C7.1732 7.35889 7.06824 7.46382 7.06824 7.59326V7.98633H6.67517C6.54575 7.98633 6.4408 8.09126 6.4408 8.22071V8.97364C6.4408 9.10309 6.54575 9.20802 6.67517 9.20802H7.06824V9.60109C7.06824 9.73053 7.1732 9.83546 7.30262 9.83546H8.05557C8.18499 9.83546 8.28995 9.73053 8.28995 9.60109V9.20802H8.683C8.81244 9.20802 8.91737 9.10309 8.91737 8.97364V8.22071C8.91737 8.09126 8.81242 7.98633 8.683 7.98633ZM8.44862 8.73926H8.05555C7.92613 8.73926 7.82117 8.84419 7.82117 8.97364V9.36671H7.53695V8.97364C7.53695 8.84419 7.43199 8.73926 7.30257 8.73926H6.9095V8.45508H7.30257C7.43199 8.45508 7.53695 8.35015 7.53695 8.22071V7.82764H7.82117V8.22071C7.82117 8.35015 7.92613 8.45508 8.05555 8.45508H8.44862V8.73926Z" fill="#262A4C"/>
<path d="M3.92371 9.57568C3.79426 9.57568 3.68933 9.68061 3.68933 9.81006V9.81765C3.68933 9.9471 3.79426 10.052 3.92371 10.052C4.05313 10.052 4.15808 9.9471 4.15808 9.81765V9.81006C4.15808 9.68061 4.05313 9.57568 3.92371 9.57568Z" fill="#262A4C"/>
<path d="M6.6626 3.20752C6.53353 3.20752 6.42822 3.3128 6.42822 3.44189C6.42822 3.57099 6.53353 3.67627 6.6626 3.67627C6.79172 3.67627 6.89697 3.57099 6.89697 3.44189C6.89697 3.3128 6.79172 3.20752 6.6626 3.20752Z" fill="#262A4C"/>
<path d="M5.27991 3.20752C5.15084 3.20752 5.04553 3.3128 5.04553 3.44189C5.04553 3.57099 5.15084 3.67627 5.27991 3.67627C5.40902 3.67627 5.51428 3.57099 5.51428 3.44189C5.51428 3.3128 5.409 3.20752 5.27991 3.20752Z" fill="#262A4C"/>
</g>
<defs>
<clipPath id="clip0">
<rect width="12" height="12" fill="white"/>
</clipPath>
</defs>
</svg>
