<svg width="12" height="12" viewBox="0 0 12 12" fill="none" xmlns="http://www.w3.org/2000/svg">
<g clip-path="url(#clip0)">
<path d="M10.4355 4.86151C10.838 4.48511 11.1443 3.97998 11.3099 3.4104C11.5444 2.60373 11.4713 1.76395 11.1094 1.10639C10.8332 0.604753 10.4029 0.247988 9.89757 0.101786C8.83574 -0.20548 7.66942 0.457918 7.11306 1.65707C6.98709 1.62841 6.85942 1.60462 6.73042 1.58577C6.72105 1.58385 6.71153 1.58228 6.70183 1.58153C6.47132 1.54921 6.23667 1.53264 5.99992 1.53264C5.62577 1.53264 5.25689 1.57399 4.90132 1.65372C4.34927 0.438254 3.17845 -0.235058 2.10593 0.0752543C1.60064 0.221457 1.17026 0.578199 0.894191 1.07983C0.53227 1.73739 0.459168 2.57718 0.693637 3.38387C0.861004 3.95964 1.17209 4.46964 1.58112 4.84731C0.650277 5.63246 0.140747 6.6312 0.140747 7.6846C0.140747 8.85174 0.760199 9.94397 1.88496 10.76C2.98704 11.5597 4.44843 12 5.99992 12C7.55141 12 9.01281 11.5597 10.1149 10.76C11.2396 9.94397 11.8591 8.85178 11.8591 7.6846C11.8591 6.63755 11.3557 5.64449 10.4355 4.86151ZM9.76733 0.552066C10.1578 0.665058 10.4799 0.93487 10.6987 1.33242C11.0011 1.88177 11.0598 2.5915 10.8598 3.27958C10.7323 3.71811 10.5095 4.11057 10.2188 4.417C10.1612 4.19835 10.0806 3.98565 9.9786 3.78104C10.0897 3.6197 10.1769 3.43663 10.2332 3.24311C10.3646 2.791 10.3228 2.31876 10.1184 1.94753C9.95898 1.65785 9.70918 1.45145 9.41504 1.36638C8.90661 1.21921 8.34709 1.45598 7.99262 1.94821C7.85577 1.88741 7.71524 1.83316 7.57183 1.7853C8.0413 0.839362 8.9495 0.315488 9.76733 0.552066ZM9.7831 3.1123C9.76208 3.18461 9.73534 3.25478 9.70374 3.3219C9.48388 3.01028 9.20961 2.7253 8.88664 2.47738C8.73784 2.36317 8.58088 2.25857 8.41708 2.164C8.65431 1.87101 8.98813 1.73078 9.28482 1.81661C9.50753 1.88104 9.63777 2.04627 9.70782 2.17354C9.8526 2.43662 9.88004 2.77877 9.7831 3.1123ZM7.16894 2.15181C7.18284 2.15697 7.1969 2.16086 7.21103 2.16327C7.46854 2.23422 7.7143 2.32715 7.94493 2.43979C7.95212 2.44485 7.9596 2.44963 7.9675 2.45397C7.98046 2.46105 7.99377 2.4666 8.00732 2.47101C8.64329 2.79524 9.15911 3.27025 9.48282 3.84168C9.49063 3.86242 9.50148 3.88215 9.51521 3.90029C9.64309 4.13823 9.73806 4.39211 9.79489 4.65828C9.19803 4.68981 8.58074 4.50482 8.104 4.14402C7.51464 3.69796 7.13228 3.01218 6.96473 2.10295C7.03349 2.11773 7.10162 2.134 7.16894 2.15181ZM5.99992 2.00139C6.16122 2.00139 6.32024 2.00981 6.47648 2.02584C6.64741 3.12041 7.11002 3.97956 7.82108 4.51775C8.34372 4.91331 9.00925 5.13034 9.66629 5.13034C9.77835 5.13034 9.89021 5.12392 10.001 5.11107C10.313 5.3578 10.5758 5.62892 10.7863 5.91774C7.26599 6.36772 5.8162 4.20777 5.23565 2.66537C5.23511 2.66287 5.23476 2.66034 5.23413 2.6578C5.2293 2.63887 5.22206 2.62124 5.2132 2.60479C5.14767 2.42561 5.09392 2.25555 5.04998 2.09983C5.35424 2.03559 5.67253 2.00139 5.99992 2.00139ZM1.14375 3.25305C0.943738 2.56494 1.00245 1.85521 1.30484 1.30586C1.52363 0.908362 1.84568 0.638503 2.23622 0.525535C3.06344 0.286238 3.97652 0.819393 4.44262 1.78035C4.30017 1.82737 4.16067 1.8809 4.02466 1.94066C3.6712 1.43451 3.10624 1.19008 2.58851 1.3398C2.29437 1.4249 2.04457 1.63131 1.88513 1.92098C1.68078 2.29223 1.63894 2.76447 1.77038 3.21658C1.82759 3.4135 1.91677 3.59933 2.03063 3.76265C1.92797 3.96552 1.8465 4.17648 1.78763 4.39339C1.49546 4.0865 1.27163 3.69301 1.14375 3.25305ZM3.60016 2.15423C3.43008 2.25138 3.26723 2.35916 3.11323 2.47738C2.79506 2.72155 2.52415 3.0017 2.30597 3.30789C2.27175 3.23699 2.24283 3.16265 2.22045 3.08575C2.12349 2.75221 2.15093 2.41005 2.29573 2.14698C2.36578 2.01972 2.49605 1.85449 2.71875 1.79006C3.02285 1.70209 3.36248 1.84914 3.60016 2.15423ZM5.99992 11.5312C3.86578 11.5312 2.01738 10.6416 1.1446 9.35473C1.90418 8.38833 3.26526 7.73937 4.92698 7.55244C5.05999 7.79975 5.37356 7.98406 5.76609 8.03698L5.76667 8.36157C5.53928 8.42468 5.34096 8.57785 5.22103 8.79181C5.15772 8.90473 5.19796 9.04756 5.31086 9.11086C5.42374 9.17414 5.56659 9.13392 5.62989 9.02103C5.70691 8.88361 5.84927 8.79825 6.0014 8.79825C6.15353 8.79825 6.29591 8.88361 6.37293 9.02103C6.41589 9.09767 6.49553 9.14084 6.57756 9.14084C6.61635 9.14084 6.6557 9.13118 6.69196 9.11089C6.80486 9.04758 6.8451 8.90475 6.7818 8.79183C6.66175 8.57761 6.46309 8.4244 6.23542 8.3614L6.23484 8.03684C6.61391 7.98549 6.919 7.81151 7.05894 7.57672C8.74344 7.79745 10.0274 8.38205 10.8807 9.3162C10.0189 10.6237 8.15526 11.5312 5.99992 11.5312ZM5.32664 7.28417C5.32664 7.1649 5.59518 6.98457 5.99992 6.98457C6.40466 6.98457 6.67323 7.1649 6.67323 7.28417C6.67321 7.40344 6.40466 7.58375 5.99992 7.58375C5.59518 7.58375 5.32664 7.40344 5.32664 7.28417ZM9.39039 7.71073C8.73423 7.42402 7.96904 7.22262 7.11367 7.11116C6.99988 6.76634 6.55155 6.51584 5.9999 6.51584C5.46271 6.51584 5.02331 6.75338 4.89562 7.08422C3.1818 7.27315 1.75299 7.93208 0.895222 8.92111C0.710043 8.53289 0.609496 8.11695 0.609496 7.68458C0.609496 6.70451 1.12964 5.76976 2.07415 5.0525C2.1244 5.01435 2.15714 4.95753 2.16497 4.89493C2.16581 4.88809 2.16691 4.88132 2.16781 4.8745C2.1679 4.87391 2.16797 4.8733 2.16806 4.87271C2.21477 4.52218 2.32652 4.19022 2.49286 3.88494C2.50774 3.86598 2.51925 3.84512 2.5275 3.82326C2.85417 3.25598 3.37085 2.78505 4.00622 2.46414C4.01897 2.46002 4.03158 2.45498 4.04381 2.44851C4.05236 2.44398 4.0604 2.43887 4.06814 2.43348C4.23705 2.35173 4.41389 2.28037 4.59752 2.22055C4.62736 2.32577 4.66235 2.43962 4.70304 2.56028C4.19489 2.72561 3.73861 2.98855 3.37235 3.32945C3.27759 3.41765 3.27225 3.56594 3.36044 3.66069C3.40662 3.71029 3.46926 3.73539 3.53205 3.73539C3.58922 3.73539 3.64655 3.7146 3.69169 3.67258C4.01266 3.37382 4.4159 3.14348 4.86707 2.99964C5.13637 3.65467 5.5642 4.41836 6.23404 5.06169C6.80233 5.60748 7.47449 5.99731 8.23183 6.22034C8.74185 6.37055 9.29378 6.44574 9.8825 6.44574C10.2594 6.44574 10.6514 6.41483 11.0569 6.35312C11.2759 6.77511 11.3904 7.22487 11.3904 7.68458C11.3904 8.10439 11.2953 8.50861 11.1203 8.8871C10.6481 8.40186 10.0679 8.00675 9.39039 7.71073Z" fill="#51B78E"/>
<path d="M5.29807 4.95181C5.18519 4.88855 5.04232 4.92884 4.97906 5.04176C4.87964 5.21926 4.69559 5.32953 4.49876 5.32953C4.30193 5.32953 4.1179 5.21926 4.01848 5.04176C3.95525 4.92882 3.8124 4.88855 3.69947 4.95181C3.58655 5.01507 3.54626 5.15787 3.60952 5.27082C3.79172 5.59618 4.13246 5.79825 4.49876 5.79825C4.86509 5.79825 5.20582 5.59615 5.38802 5.27082C5.45126 5.1579 5.41097 5.01507 5.29807 4.95181Z" fill="#51B78E"/>
<path d="M3.21232 3.79245C3.09626 3.735 2.9557 3.78255 2.8983 3.89855L2.89584 3.90361C2.83938 4.02009 2.88802 4.16027 3.0045 4.21676C3.03743 4.23274 3.07228 4.24029 3.10657 4.24029C3.19354 4.24029 3.27712 4.19165 3.31762 4.10812L3.31844 4.10646C3.37582 3.99042 3.32829 3.84984 3.21232 3.79245Z" fill="#51B78E"/>
</g>
<defs>
<clipPath id="clip0">
<rect width="12" height="12" fill="white"/>
</clipPath>
</defs>
</svg>
